<svg width="420" height="124" viewBox="0 0 420 124" fill="none" xmlns="http://www.w3.org/2000/svg">
  <defs>
    <linearGradient id="wordmarkGradient" x1="46" y1="20" x2="345" y2="108" gradientUnits="userSpaceOnUse">
      <stop stop-color="#F6E9C9"/>
      <stop offset="0.55" stop-color="#F3DEAA"/>
      <stop offset="1" stop-color="#D6AA43"/>
    </linearGradient>
    <filter id="wordmarkGlow" x="0" y="0" width="420" height="124" filterUnits="userSpaceOnUse" color-interpolation-filters="sRGB">
      <feDropShadow dx="0" dy="14" stdDeviation="18" flood-color="#D6AA43" flood-opacity="0.18"/>
    </filter>
  </defs>

  <g filter="url(#wordmarkGlow)">
    <path d="M24 45.5C24 29.1 36.8 19 54.9 19C68.8 19 79.4 24.8 85.8 34.2L73.3 43C68.7 36.4 62.4 32.8 54.5 32.8C45.6 32.8 39.9 37 39.9 43.6C39.9 51.3 47.2 54 58.3 57.1C74.7 61.8 88.4 68 88.4 83.4C88.4 100.7 73 109.7 54.9 109.7C37.7 109.7 24.4 102.2 17.5 90.7L30.5 82.3C35.8 90.2 43.2 95.5 54.7 95.5C65.6 95.5 72.3 91.1 72.3 84.1C72.3 76.3 64.3 73.5 51.1 69.6C34.8 64.8 24 58.8 24 45.5Z" fill="url(#wordmarkGradient)"/>
    <path d="M104 20.5H138.1C162.4 20.5 176.9 33.8 176.9 54.1C176.9 74.5 162.4 87.7 138.1 87.7H119.8V108H104V20.5ZM137.5 73.7C152.3 73.7 160.9 66.8 160.9 54.1C160.9 41.5 152.3 34.5 137.5 34.5H119.8V73.7H137.5Z" fill="url(#wordmarkGradient)"/>
    <path d="M192.5 20.5H208.3V56.1H248.1V20.5H263.9V108H248.1V70H208.3V108H192.5V20.5Z" fill="url(#wordmarkGradient)"/>
    <path d="M299.8 72.3L268.8 20.5H286.7L307.7 57L328.8 20.5H346.3L315.5 72.1V108H299.8V72.3Z" fill="url(#wordmarkGradient)"/>
    <path d="M360.8 20.5H376.6V108H360.8V20.5Z" fill="url(#wordmarkGradient)"/>
    <path d="M392.4 20.5H409.6L370.1 108H352.9L392.4 20.5Z" fill="url(#wordmarkGradient)"/>
    <rect x="123" y="47" width="12" height="12" rx="2" fill="#D6AA43"/>
    <path d="M364.8 12L373.8 5L382.8 12V30H364.8V12Z" fill="#D6AA43"/>
  </g>
</svg>
