<svg width="144" height="144" viewBox="0 0 144 144" fill="none" xmlns="http://www.w3.org/2000/svg">
  <defs>
    <linearGradient id="appMarkGold" x1="31" y1="14" x2="108" y2="124" gradientUnits="userSpaceOnUse">
      <stop stop-color="#F4E4BF"/>
      <stop offset="1" stop-color="#D6AA43"/>
    </linearGradient>
  </defs>
  <rect width="144" height="144" rx="30" fill="#080808"/>
  <path d="M35 21C24.6 33.7 18 49.9 18 68.1C18 87.8 25.7 106 39.7 118.8H54.2C40.5 107.6 32.2 91 32.2 72.3C32.2 56.9 37.8 41.9 47.8 29.5L35 21Z" fill="url(#appMarkGold)"/>
  <path d="M109 21C119.4 33.7 126 49.9 126 68.1C126 87.8 118.3 106 104.3 118.8H89.8C103.5 107.6 111.8 91 111.8 72.3C111.8 56.9 106.2 41.9 96.2 29.5L109 21Z" fill="url(#appMarkGold)"/>
  <path d="M48.5 31.4C52.9 53 67.6 62.3 85.7 72.1C98.1 78.9 103.8 85.4 103.8 94.5C103.8 108 92.5 116.6 74.6 116.6C60.8 116.6 49.1 111.7 40.7 103.4L49.4 91.7C56 98.3 64.5 102.1 74 102.1C83.2 102.1 88.7 98.8 88.7 93.4C88.7 87.8 84.2 84.3 72.3 78.3C53.9 69 43.7 55.7 43.7 36.8C43.7 34.5 43.9 32.7 44.5 29.6L48.5 31.4Z" fill="#090909"/>
  <path d="M57.5 21.8L82.4 21.7L94.8 33.9H73.8L57.5 21.8Z" fill="#090909"/>
  <path d="M58.2 59.8H97.1L103.6 71.8H70L58.2 59.8Z" fill="#090909"/>
  <path d="M35.8 92.2H74.8L68.2 104.3H42.5L35.8 92.2Z" fill="#090909"/>
</svg>
